Coordinates
version=1
nRows=12
nColumns=24
inDegrees=yes

Units are S.I. units (second, meters, Newtons, ...)
Angles are in degrees.

endheader
time	pelvis_tilt	pelvis_list	pelvis_rotation	pelvis_tx	pelvis_ty	pelvis_tz	hip_flexion_r	hip_adduction_r	hip_rotation_r	knee_angle_r	ankle_angle_r	subtalar_angle_r	mtp_angle_r	hip_flexion_l	hip_adduction_l	hip_rotation_l	knee_angle_l	ankle_angle_l	subtalar_angle_l	mtp_angle_l	lumbar_extension	lumbar_bending	lumbar_rotation
      3.41500000	     25.17767973	     -3.64686812	     -1.79874481	     -0.18105135	      1.04095689	     -0.03889506	     -3.42508949	     -3.22397143	    -10.86899682	    -32.68289963	      5.43618719	     -9.71936549	     32.26997095	    -29.56060962	     -0.75640042	     -5.41947170	     -7.56066573	     13.99168035	     -0.78963558	      1.27078507	    -40.75368613	      0.26868736	      1.87485780
      3.42000000	     25.16580085	     -3.61419740	     -1.76326958	     -0.17623121	      1.04053684	     -0.03843604	     -3.50513372	     -3.12562708	    -10.92519547	    -30.92870392	      5.44040456	     -9.48548316	     32.08201050	    -29.97866029	     -0.76270071	     -5.48059645	     -7.32581872	     14.12939193	     -0.53459716	      1.29140728	    -40.77891130	      0.24819282	      1.85605653
      3.42500000	     25.12559894	     -3.57308971	     -1.73823592	     -0.17137442	      1.04002521	     -0.03799183	     -3.56909249	     -3.03910534	    -10.98318556	    -29.16233992	      5.43107640	     -9.19453190	     31.90581432	    -30.37329249	     -0.75189148	     -5.53767645	     -7.07917442	     14.28024616	     -0.34100056	      1.31205721	    -40.77095562	      0.22213663	      1.82982953
      3.43000000	     25.05079308	     -3.53236417	     -1.71006116	     -0.16646401	      1.03944931	     -0.03753533	     -3.61819223	     -2.94609371	    -11.04602138	    -27.37345979	      5.38211011	     -8.88145687	     31.75515484	    -30.73755557	     -0.74487214	     -5.58907639	     -6.82314870	     14.42884360	     -0.17267060	      1.33449355	    -40.72296524	      0.19959772	      1.79458809
      3.43500000	     25.03000803	     -3.45870726	     -1.67383639	     -0.16159497	      1.03890467	     -0.03706020	     -3.75272483	     -2.88089014	    -11.09847424	    -25.55095805	      5.34244920	     -8.54256912	     31.57205725	    -31.14348886	     -0.71295487	     -5.62296258	     -6.59127441	     14.54955958	      0.04770942	      1.35901365	    -40.73538255	      0.14613998	      1.75650084
      3.44000000	     24.99594626	     -3.38314051	     -1.63788775	     -0.15667422	      1.03830088	     -0.03658161	     -3.88851717	     -2.81721247	    -11.16528652	    -23.72662918	      5.24914896	     -8.18488748	     31.31308565	    -31.54594621	     -0.67975356	     -5.66981086	     -6.34192493	     14.65996310	      0.27537523	      1.38656007	    -40.72928221	      0.09299512	      1.71426849
      3.44500000	     24.92266197	     -3.30655023	     -1.60964581	     -0.15172061	      1.03761599	     -0.03608590	     -3.99194969	     -2.75100700	    -11.22025835	    -21.90933316	      5.12751483	     -7.80100074	     31.17292065	    -31.90333713	     -0.64013776	     -5.69047726	     -6.10324002	     14.81640401	      0.39388133	      1.41558358	    -40.67884055	      0.03849593	      1.66780129
      3.45000000	     24.91426631	     -3.21286453	     -1.55269810	     -0.14675710	      1.03697423	     -0.03560777	     -4.19695005	     -2.69787771	    -11.29831703	    -20.07499169	      5.00160746	     -7.42710302	     31.00818623	    -32.32329408	     -0.60178449	     -5.70603347	     -5.87514764	     14.93701761	      0.59977775	      1.45112856	    -40.69621067	     -0.01809858	      1.60544064
      3.45500000	     24.88299037	     -3.11216103	     -1.49830391	     -0.14175996	      1.03627819	     -0.03511037	     -4.38422614	     -2.64974836	    -11.37945533	    -18.26332187	      4.82737504	     -7.06154753	     30.83034461	    -32.71526346	     -0.55813545	     -5.71817829	     -5.65679579	     15.06388634	      0.79287609	      1.49218146	    -40.68594560	     -0.08115532	      1.54593312
      3.46000000	     24.86312177	     -2.98877381	     -1.44811962	     -0.13676185	      1.03555694	     -0.03459181	     -4.58663495	     -2.62535950	    -11.46141335	    -16.48813488	      4.62900454	     -6.69155362	     30.62674371	    -33.11201956	     -0.49254043	     -5.72174937	     -5.45078149	     15.18502031	      0.98782556	      1.54108981	    -40.68830810	     -0.16879376	      1.48201313
      3.46500000	     24.82096408	     -2.87488453	     -1.38019385	     -0.13167992	      1.03478858	     -0.03409353	     -4.77679373	     -2.58814466	    -11.57356029	    -14.75243084	      4.40236413	     -6.34546789	     30.44999748	    -33.49020677	     -0.44588395	     -5.71722581	     -5.24056597	     15.31395467	      1.15632122	      1.59121175	    -40.65894561	     -0.23132994	      1.38845330
      3.47000000	     24.80277910	     -2.75151742	     -1.30929105	     -0.12658870	      1.03401609	     -0.03357396	     -4.99365989	     -2.56010542	    -11.69809715	    -13.07266242	      4.16260005	     -5.99937129	     30.27336409	    -33.88644034	     -0.39439556	     -5.70881056	     -5.04661204	     15.43516007	      1.33653404	      1.64780200	    -40.65395674	     -0.30378514	      1.30175453
